HIERARCHY
ROOT Hips
{
  OFFSET 5.80788e-005 67.184 3.4734
  CHANNELS 6 Xposition Yposition Zposition Zrotation Xrotation Yrotation
  JOINT Chest
  {
    OFFSET 0 8.7983 -4.7612
    CHANNELS 3 Zrotation Xrotation Yrotation
    JOINT Chest2
    {
      OFFSET 0 8.0291 0.4195
      CHANNELS 3 Zrotation Xrotation Yrotation
      JOINT Chest3
      {
        OFFSET 0 9.9351 -2.2114
        CHANNELS 3 Zrotation Xrotation Yrotation
        JOINT Neck
        {
          OFFSET 0 22.3885 -0.4656
          CHANNELS 3 Zrotation Xrotation Yrotation
          JOINT Head
          {
            OFFSET -0.0001 12.643 3.4389
            CHANNELS 3 Zrotation Xrotation Yrotation
            End Site
            {
              OFFSET 0.0001 17.6655 0.5274
            }
          }
        }
        JOINT LeftCollar
        {
          OFFSET 2.2603 21.606 7.4023
          CHANNELS 3 Zrotation Xrotation Yrotation
          JOINT LeftShoulder
          {
            OFFSET 13.5163 -1.1332 -5.0146
            CHANNELS 3 Zrotation Xrotation Yrotation
            JOINT LeftElbow
            {
              OFFSET -0.0995 -28.05 -0.2431
              CHANNELS 3 Zrotation Xrotation Yrotation
              JOINT LeftWrist
              {
                OFFSET 0.0679 -23.3996 -0.1402
                CHANNELS 3 Zrotation Xrotation Yrotation
                JOINT LeftFinger1
                {
                  OFFSET 0.7932 -9.069 2.5189
                  CHANNELS 3 Zrotation Xrotation Yrotation
                  JOINT LeftFinger11
                  {
                    OFFSET -0.8272 -3.3923 0.5977
                    CHANNELS 3 Zrotation Xrotation Yrotation
                    JOINT LeftFinger12
                    {
                      OFFSET -0.5649 -2.3158 0.4082
                      CHANNELS 3 Zrotation Xrotation Yrotation
                      End Site
                      {
                        OFFSET -0.4919 -1.6479 0.2673
                      }
                    }
                  }
                }
                JOINT LeftFinger2
                {
                  OFFSET 0.9159 -9.2044 0.2193
                  CHANNELS 3 Zrotation Xrotation Yrotation
                  JOINT LeftFinger21
                  {
                    OFFSET 0.0117 -4.1944 -0.0248
                    CHANNELS 3 Zrotation Xrotation Yrotation
                    JOINT LeftFinger22
                    {
                      OFFSET 0.0071 -2.3249 -0.0142
                      CHANNELS 3 Zrotation Xrotation Yrotation
                      End Site
                      {
                        OFFSET -0.1475 -2.0882 0.0028
                      }
                    }
                  }
                }
                JOINT LeftFinger3
                {
                  OFFSET 0.6113 -8.7231 -2.0637
                  CHANNELS 3 Zrotation Xrotation Yrotation
                  JOINT LeftFinger31
                  {
                    OFFSET -0.1927 -3.8059 -0.2383
                    CHANNELS 3 Zrotation Xrotation Yrotation
                    JOINT LeftFinger32
                    {
                      OFFSET -0.1091 -2.1688 -0.1362
                      CHANNELS 3 Zrotation Xrotation Yrotation
                      End Site
                      {
                        OFFSET -0.2358 -1.9176 -0.0906
                      }
                    }
                  }
                }
                JOINT LeftFinger4
                {
                  OFFSET -0.6151 -8.0947 -3.5641
                  CHANNELS 3 Zrotation Xrotation Yrotation
                  JOINT LeftFinger41
                  {
                    OFFSET -0.4882 -2.341 -0.6462
                    CHANNELS 3 Zrotation Xrotation Yrotation
                    JOINT LeftFinger42
                    {
                      OFFSET -0.3575 -1.7167 -0.4742
                      CHANNELS 3 Zrotation Xrotation Yrotation
                      End Site
                      {
                        OFFSET -0.4187 -1.5237 -0.3496
                      }
                    }
                  }
                }
                JOINT LeftFinger0
                {
                  OFFSET -1.42 -1.8761 1.4223
                  CHANNELS 3 Zrotation Xrotation Yrotation
                  JOINT LeftFinger01
                  {
                    OFFSET -1.1471 -3.4929 2.6334
                    CHANNELS 3 Zrotation Xrotation Yrotation
                    JOINT LeftFinger02
                    {
                      OFFSET -0.823 -2.3 1.6571
                      CHANNELS 3 Zrotation Xrotation Yrotation
                      End Site
                      {
                        OFFSET -0.5822 -1.6914 1.1582
                      }
                    }
                  }
                }
              }
            }
          }
        }
        JOINT RightCollar
        {
          OFFSET -2.2603 21.606 7.4023
          CHANNELS 3 Zrotation Xrotation Yrotation
          JOINT RightShoulder
          {
            OFFSET -13.5187 -1.1334 -5.0155
            CHANNELS 3 Zrotation Xrotation Yrotation
            JOINT RightElbow
            {
              OFFSET 0.0994 -28.0499 -0.2431
              CHANNELS 3 Zrotation Xrotation Yrotation
              JOINT RightWrist
              {
                OFFSET -0.0679 -23.3996 -0.1402
                CHANNELS 3 Zrotation Xrotation Yrotation
                JOINT RightFinger1
                {
                  OFFSET -0.7932 -9.0691 2.5189
                  CHANNELS 3 Zrotation Xrotation Yrotation
                  JOINT RightFinger11
                  {
                    OFFSET 0.8272 -3.3923 0.5977
                    CHANNELS 3 Zrotation Xrotation Yrotation
                    JOINT RightFinger12
                    {
                      OFFSET 0.565 -2.3158 0.4082
                      CHANNELS 3 Zrotation Xrotation Yrotation
                      End Site
                      {
                        OFFSET 0.4919 -1.6479 0.2673
                      }
                    }
                  }
                }
                JOINT RightFinger2
                {
                  OFFSET -0.916 -9.2044 0.2193
                  CHANNELS 3 Zrotation Xrotation Yrotation
                  JOINT RightFinger21
                  {
                    OFFSET -0.0117 -4.1944 -0.0248
                    CHANNELS 3 Zrotation Xrotation Yrotation
                    JOINT RightFinger22
                    {
                      OFFSET -0.0071 -2.3249 -0.0142
                      CHANNELS 3 Zrotation Xrotation Yrotation
                      End Site
                      {
                        OFFSET 0.1475 -2.0882 0.0028
                      }
                    }
                  }
                }
                JOINT RightFinger3
                {
                  OFFSET -0.6113 -8.7231 -2.0637
                  CHANNELS 3 Zrotation Xrotation Yrotation
                  JOINT RightFinger31
                  {
                    OFFSET 0.1927 -3.8059 -0.2383
                    CHANNELS 3 Zrotation Xrotation Yrotation
                    JOINT RightFinger32
                    {
                      OFFSET 0.1091 -2.1688 -0.1362
                      CHANNELS 3 Zrotation Xrotation Yrotation
                      End Site
                      {
                        OFFSET 0.2358 -1.9176 -0.0906
                      }
                    }
                  }
                }
                JOINT RightFinger4
                {
                  OFFSET 0.6151 -8.0947 -3.564
                  CHANNELS 3 Zrotation Xrotation Yrotation
                  JOINT RightFinger41
                  {
                    OFFSET 0.4882 -2.341 -0.6462
                    CHANNELS 3 Zrotation Xrotation Yrotation
                    JOINT RightFinger42
                    {
                      OFFSET 0.3574 -1.7166 -0.4742
                      CHANNELS 3 Zrotation Xrotation Yrotation
                      End Site
                      {
                        OFFSET 0.4187 -1.5237 -0.3496
                      }
                    }
                  }
                }
                JOINT RightFinger0
                {
                  OFFSET 1.4199 -1.8761 1.4221
                  CHANNELS 3 Zrotation Xrotation Yrotation
                  JOINT RightFinger01
                  {
                    OFFSET 1.1472 -3.4929 2.6336
                    CHANNELS 3 Zrotation Xrotation Yrotation
                    JOINT RightFinger02
                    {
                      OFFSET 0.8229 -2.3 1.6571
                      CHANNELS 3 Zrotation Xrotation Yrotation
                      End Site
                      {
                        OFFSET 0.5822 -1.6914 1.1582
                      }
                    }
                  }
                }
              }
            }
          }
        }
      }
    }
  }
  JOINT RightHip
  {
    OFFSET -9.412 3.9771 -0.7758
    CHANNELS 3 Zrotation Xrotation Yrotation
    JOINT RightKnee
    {
      OFFSET -0.7531 -40.938 0
      CHANNELS 3 Zrotation Xrotation Yrotation
      JOINT RightAnkle
      {
        OFFSET 0 -40.1986 0
        CHANNELS 3 Zrotation Xrotation Yrotation
        JOINT RightToe
        {
          OFFSET 0 -4.4182 9.239
          CHANNELS 3 Zrotation Xrotation Yrotation
          End Site
          {
            OFFSET 0 0 6.1981
          }
        }
      }
    }
  }
  JOINT LeftHip
  {
    OFFSET 9.4119 3.9773 -0.7758
    CHANNELS 3 Zrotation Xrotation Yrotation
    JOINT LeftKnee
    {
      OFFSET 0.7532 -40.9383 0
      CHANNELS 3 Zrotation Xrotation Yrotation
      JOINT LeftAnkle
      {
        OFFSET 0 -40.1986 0
        CHANNELS 3 Zrotation Xrotation Yrotation
        JOINT LeftToe
        {
          OFFSET 0 -4.4182 9.239
          CHANNELS 3 Zrotation Xrotation Yrotation
          End Site
          {
            OFFSET 0 0 6.1981
          }
        }
      }
    }
  }
}
MOTION
Frames:	4
Frame Time:	0.0333333
5.80788e-005 67.184 3.4734 0 0 -0 0 0 -0 0 0 -0 0 0 -0 0 0 -0 0 0 -0 0 0 -12.5014 88.1196 14.2451 10.6914 -0.00160068 -0.00239207 0.000740045 -8.4365e-005 7.00714e-005 -9.52055e-007 9.93923e-017 -1.98785e-016 -1.59028e-015 9.93923e-017 -5.96354e-016 -1.59028e-015 -9.93923e-017 -5.96354e-016 -1.59028e-015 9.93923e-017 -1.98785e-016 -1.59028e-015 -0.0128176 0.00232552 8.52707e-005 9.93923e-017 5.96354e-016 -0 9.93923e-017 -1.98785e-016 -1.59028e-015 -0.0160551 0.00299681 0.000857156 -2.48481e-016 0 3.18055e-015 9.93923e-017 -1.98785e-016 -1.59028e-015 -0.0125865 0.0031206 0.00282719 0 1.98785e-016 -0 9.93923e-017 -1.98785e-016 -1.59028e-015 9.93923e-017 -5.96354e-016 -1.59028e-015 -9.93923e-017 -5.96354e-016 -1.59028e-015 -0.865644 0.16582 7.03859 -88.0329 10.2057 -10.5567 0.0015593 -0.00248883 -0.000788628 7.87605e-005 4.10553e-005 1.24965e-005 -3.97569e-016 -7.95139e-016 3.18055e-015 -1.98785e-016 -3.97569e-016 3.18055e-015 -1.98785e-016 0 3.18055e-015 -3.97569e-016 -7.95139e-016 3.18055e-015 0.0129473 0.00231697 -8.70038e-005 9.93923e-017 -7.95139e-016 1.59028e-015 -3.97569e-016 -7.95139e-016 3.18055e-015 0.0163314 0.00303369 -0.000872333 3.97569e-016 7.95139e-016 -3.18055e-015 -3.97569e-016 -7.95139e-016 3.18055e-015 0.0145763 0.00367772 -0.00326275 9.93923e-017 -3.97569e-016 -0 -3.97569e-016 -7.95139e-016 3.18055e-015 -1.98785e-016 -3.97569e-016 3.18055e-015 -1.98785e-016 0 3.18055e-015 3.42485 1.36937 -0.0640303 0.000136572 0.69354 0.00145564 -3.42573 -2.06297 -0.0607933 -3.19502e-024 0 -1.48106e-024 -3.42498 1.36123 0.0639712 -6.769e-005 0.712612 -0.0012277 3.42582 -2.07388 0.0612819 2.55305e-023 0 -2.31416e-026 
-5.68182e-005 4.23575 9.47588 -180 -81.997 -180 -0.0393468 0.932518 -0.146747 -0.0763199 1.86513 -0.292912 -0.0763196 1.86512 -0.292911 6.53538e-006 39.9977 -1.53837e-005 1.53521e-008 8.99857 -3.87256e-008 -23.6186 7.43212 -16.6954 41.8928 -21.0783 31.6983 -6.12935 1.31337 -34.8073 -52.8689 11.779 63.585 9.54166e-015 6.36111e-015 4.77083e-015 1.90833e-014 9.54166e-015 6.36111e-015 1.90833e-014 3.18055e-015 -0 9.54166e-015 6.36111e-015 4.77083e-015 -0.0128026 0.00234248 8.56943e-005 5.19976e-006 -3.56281e-006 -7.75473e-006 9.54166e-015 6.36111e-015 4.77083e-015 -0.016019 0.00301392 0.000861023 1.76556e-031 -3.18055e-015 3.18055e-015 9.54166e-015 6.36111e-015 4.77083e-015 -0.0126131 0.00313855 0.00282931 -6.96959e-007 8.03926e-006 -5.53696e-007 9.54166e-015 6.36111e-015 4.77083e-015 1.90833e-014 9.54166e-015 6.36111e-015 1.90833e-014 3.18055e-015 -0 25.1769 7.35957 12.8747 -41.6288 -22.2509 -28.2551 4.45647 1.00514 34.8082 55.2557 13.5687 -61.8306 -5.28304e-006 -2.79037e-006 -1.24198e-006 7.83766e-006 -2.08034e-005 -3.14421e-006 -1.27355e-005 1.74782e-005 2.5099e-006 -5.28304e-006 -2.79037e-006 -1.24198e-006 0.01293 0.00231989 -8.53841e-005 8.44945e-006 -1.94701e-005 5.70162e-007 -5.28304e-006 -2.79037e-006 -1.24198e-006 0.0163192 0.00303282 -0.000880748 6.36234e-006 -2.23677e-005 2.88642e-006 -5.28304e-006 -2.79037e-006 -1.24198e-006 0.0145809 0.00365336 -0.00325002 -6.61734e-006 -5.54217e-006 1.74313e-007 -5.28304e-006 -2.79037e-006 -1.24198e-006 7.83766e-006 -2.08034e-005 -3.14421e-006 -1.27355e-005 1.74782e-005 2.5099e-006 -22.0438 -18.4386 -48.3178 -69.3531 53.1031 56.8252 3.78332 12.8289 -11.2516 1.13466e-006 -7.54684e-006 4.67914e-006 22.0245 -18.4446 48.2956 69.3073 53.1215 -56.7741 -3.79235 12.8407 11.2369 8.55392e-006 4.67839e-006 5.232e-006 
-6.35118e-005 4.33791 9.53553 180 -82.7732 180 -0.0380921 0.689299 -0.147229 -0.0744202 1.37866 -0.294029 -0.07442 1.37869 -0.294029 2.35443e-005 39.9978 -5.34429e-005 0.0362905 8.82154 0.0380613 -23.0776 8.08245 -16.0347 41.3876 -21.349 31.4944 -6.62962 1.40301 -34.8308 -52.4197 11.8219 63.3845 -3.18055e-015 -6.36111e-015 -4.77083e-015 -2.30992e-006 -1.71487e-005 -2.39046e-006 4.28676e-006 1.58946e-005 -9.16441e-009 -3.18055e-015 -6.36111e-015 -4.77083e-015 -0.0128294 0.00232166 8.58111e-005 -1.86427e-006 5.80179e-006 9.14846e-006 -3.18055e-015 -6.36111e-015 -4.77083e-015 -0.0160519 0.00299169 0.000852118 -1.66565e-006 1.29503e-006 8.74753e-007 -3.18055e-015 -6.36111e-015 -4.77083e-015 -0.0126198 0.00312921 0.00281596 -1.38878e-005 -2.44564e-005 4.16807e-006 -3.18055e-015 -6.36111e-015 -4.77083e-015 -2.30992e-006 -1.71487e-005 -2.39046e-006 4.28676e-006 1.58946e-005 -9.16441e-009 24.5096 8.00914 12.1295 -41.0016 -22.5482 -27.9754 5.00796 1.10253 34.8422 54.7478 13.5413 -61.6723 3.18055e-015 3.18055e-015 -4.77083e-015 9.54166e-015 0 -0 6.36111e-015 0 1.59028e-015 3.18055e-015 3.18055e-015 -4.77083e-015 0.012953 0.00230854 -8.14584e-005 9.54166e-015 -3.18055e-015 1.59028e-015 3.18055e-015 3.18055e-015 -4.77083e-015 0.0163364 0.00304173 -0.000863267 -9.54166e-015 3.18055e-015 -4.77083e-015 3.18055e-015 3.18055e-015 -4.77083e-015 0.0146046 0.00370254 -0.00327232 3.18055e-015 -6.36111e-015 4.77083e-015 3.18055e-015 3.18055e-015 -4.77083e-015 9.54166e-015 0 -0 6.36111e-015 0 1.59028e-015 -22.0327 -19.0451 -48.4016 -69.333 53.0995 56.8086 3.98843 12.7521 -11.376 -9.5403e-007 -4.58045e-006 3.01832e-006 22.0131 -19.0512 48.3796 69.2872 53.1178 -56.7575 -3.99694 12.7641 11.3613 9.50706e-006 1.21528e-006 2.21193e-006 
-6.62276e-005 4.4392 9.59396 180 -83.5498 180 -0.0369037 0.445645 -0.147595 -0.0726634 0.891381 -0.294919 -0.0726627 0.891374 -0.294916 5.00823e-005 39.9979 -0.000111739 0.072701 8.64446 0.0762378 -22.5425 8.73988 -15.3781 40.8759 -21.6182 31.286 -7.12655 1.49063 -34.8544 -51.9703 11.8631 63.1836 9.26538e-006 1.47257e-005 -2.60266e-006 9.54166e-015 3.18055e-015 -4.77083e-015 3.18055e-015 6.36111e-015 -3.18055e-015 9.26538e-006 1.47257e-005 -2.60266e-006 -0.0128397 0.00231467 8.52844e-005 -1.27222e-014 -3.18055e-015 -0 9.26538e-006 1.47257e-005 -2.60266e-006 -0.0160489 0.00297403 0.000848771 -1.76556e-031 -3.18055e-015 -3.18055e-015 9.26538e-006 1.47257e-005 -2.60266e-006 -0.0126152 0.00312918 0.00283039 3.18055e-015 0 -3.18055e-015 9.26538e-006 1.47257e-005 -2.60266e-006 9.54166e-015 3.18055e-015 -4.77083e-015 3.18055e-015 6.36111e-015 -3.18055e-015 23.8485 8.66847 11.3893 -40.3709 -22.8427 -27.6914 5.55951 1.19971 34.876 54.2399 13.5125 -61.5142 -9.54166e-015 -3.18055e-015 -3.18055e-015 -5.85119e-006 7.06706e-007 2.33428e-006 2.64834e-031 -3.18055e-015 4.77083e-015 -9.54166e-015 -3.18055e-015 -3.18055e-015 0.0129554 0.00230801 -7.83715e-005 0 0 -0 -9.54166e-015 -3.18055e-015 -3.18055e-015 0.0163555 0.00303692 -0.000878611 3.18055e-015 -3.18055e-015 -0 -9.54166e-015 -3.18055e-015 -3.18055e-015 0.0145654 0.00367017 -0.00324936 0 0 -1.59028e-015 -9.54166e-015 -3.18055e-015 -3.18055e-015 -5.85119e-006 7.06706e-007 2.33428e-006 2.64834e-031 -3.18055e-015 4.77083e-015 -22.0223 -19.6521 -48.4854 -69.3132 53.096 56.7921 4.1933 12.6749 -11.5002 3.18055e-015 6.36111e-015 3.18055e-015 22.0025 -19.6582 48.4637 69.2675 53.1143 -56.7412 -4.20127 12.6868 11.4855 -7.4203e-006 -5.20083e-007 -5.53394e-007 
